          <svg class="fish-icon brand-logo__fish" viewBox="0 0 144 72" fill="none" xmlns="http://www.w3.org/2000/svg" aria-hidden="true">
            <g class="fish-icon__swim">
              <g class="fish-icon__tail">
                <path d="M98 36 L134 12 L118 36 L134 60 L98 36Z" fill="var(--fish-tail)"/>
                <path d="M98 36 L128 36" stroke="var(--fish-outline)" stroke-width="0.75" opacity="0.35"/>
              </g>
              <path class="fish-icon__body" d="M6 36 C6 26 16 18 34 16 C52 14 78 16 92 24 C98 28 100 32 100 36 C100 40 98 44 92 48 C78 56 52 58 34 56 C16 54 6 46 6 36Z" fill="var(--fish-body)"/>
              <path d="M18 38 C34 46 68 46 88 38 C76 50 42 52 22 46 C16 44 14 40 18 38Z" fill="var(--fish-belly)" opacity="0.55"/>
              <path d="M36 22 L40 18 M48 20 L52 16 M58 21 L62 17 M68 23 L72 19 M78 25 L82 21" stroke="var(--fish-scute)" stroke-width="1.8" stroke-linecap="round"/>
              <path d="M60 18 C64 10 72 8 78 16 L74 21 Z" fill="var(--fish-fin)"/>
              <g class="fish-icon__pectoral">
                <path d="M44 42 L30 58 L50 46 Z" fill="var(--fish-fin)"/>
              </g>
              <path d="M6 36 L2 33 L2 39 Z" fill="var(--fish-body)"/>
              <path d="M12 42 L8 52 M15 40 L11 50 M18 38 L14 48" stroke="var(--fish-accent)" stroke-width="1.1" stroke-linecap="round" opacity="0.85"/>
              <circle cx="30" cy="31" r="4" fill="var(--fish-eye-bg)"/>
              <circle cx="31" cy="30.5" r="2.2" fill="var(--fish-eye)"/>
              <circle cx="31.8" cy="29.8" r="0.75" fill="#fff" opacity="0.95"/>
              <ellipse cx="38" cy="39" rx="4.5" ry="2.8" fill="var(--fish-accent)" opacity="0.8"/>
              <path d="M52 30 Q62 36 52 42 M66 28 Q78 36 66 44 M80 30 Q92 36 80 42" stroke="var(--fish-scute)" stroke-width="0.65" fill="none" opacity="0.3"/>
            </g>
          </svg>
